<?xml version="1.0" encoding="UTF-8"?>
<svg version="1.1" xmlns="http://www.w3.org/2000/svg" width="512" height="512">
<path d="M0 0 C0.65607953 -0.00453111 1.31215906 -0.00906223 1.98811978 -0.01373065 C4.178935 -0.02635582 6.36950102 -0.02475553 8.56034851 -0.02310181 C10.13429584 -0.02908828 11.70824024 -0.0358941 13.28218079 -0.04345703 C17.55296254 -0.06111305 21.82366413 -0.06581227 26.09447885 -0.0670886 C28.764514 -0.06851109 31.43452884 -0.07278255 34.10455894 -0.07808304 C43.42463345 -0.09658261 52.74465078 -0.10475382 62.06474304 -0.10317993 C70.74383297 -0.10197883 79.4226741 -0.12307517 88.10170108 -0.15466726 C95.56005117 -0.18084572 103.01832008 -0.19154656 110.47671574 -0.19026911 C114.92817285 -0.1897599 119.37940885 -0.19542023 123.83082008 -0.21662521 C128.01946898 -0.23603391 132.20768647 -0.23611428 136.39635086 -0.22159195 C137.92976832 -0.21950594 139.46321296 -0.22419239 140.99658394 -0.23631287 C150.06199648 -0.30330341 157.1862433 -0.18025424 164.36381531 6.01351929 C165.03283875 6.85076538 165.03283875 6.85076538 165.71537781 7.70492554 C166.40760437 8.53830444 166.40760437 8.53830444 167.11381531 9.38851929 C170.01466132 13.83217194 170.59276287 17.66656485 170.60780334 22.92704773 C170.61233446 23.58312726 170.61686557 24.23920678 170.62153399 24.91516751 C170.63415917 27.10598273 170.63255887 29.29654875 170.63090515 31.48739624 C170.63689162 33.06134357 170.64369745 34.63528797 170.65126038 36.20922852 C170.66891639 40.48001027 170.67361561 44.75071185 170.67489195 49.02152658 C170.67631443 51.69156173 170.68058589 54.36157657 170.68588638 57.03160667 C170.70438595 66.35168118 170.71255716 75.67169851 170.71098328 84.99179077 C170.70978217 93.6708807 170.73087851 102.34972183 170.7624706 111.02874881 C170.78864906 118.4870989 170.7993499 125.94536781 170.79807246 133.40376347 C170.79756325 137.85522058 170.80322358 142.30645658 170.82442856 146.75786781 C170.84383725 150.94651671 170.84391762 155.1347342 170.82939529 159.32339859 C170.82730928 160.85681605 170.83199573 162.39026069 170.84411621 163.92363167 C170.91582215 173.62714975 170.71500246 180.79337759 163.59037781 188.07992554 C155.09066114 193.80088868 147.03238324 193.69968921 137.14701843 193.65560913 C135.61203641 193.65967927 134.07705733 193.66502364 132.54208374 193.67153931 C128.39125258 193.68516613 124.2406462 193.67993352 120.08981133 193.67040205 C115.73603099 193.66278135 111.38226929 193.66985774 107.02848816 193.67456055 C99.71851666 193.68001109 92.40863624 193.67284491 85.09867859 193.65853882 C76.65983548 193.64221364 68.22120984 193.64750265 59.782372 193.66401803 C52.52352814 193.6776529 45.26474958 193.67954279 38.00589705 193.67170203 C33.67638048 193.6670365 29.34696598 193.66636974 25.01745605 193.67631149 C20.94617395 193.68500807 16.87517095 193.67891042 12.80391884 193.66162872 C11.31404902 193.6576782 9.82415552 193.65877324 8.33429527 193.66541672 C-0.57414348 193.70146368 -7.69234601 193.42841947 -15.40962219 188.51742554 C-21.13722032 182.78982741 -22.77715969 176.80605601 -22.80679321 168.89337158 C-22.81394852 167.58130234 -22.82110382 166.26923309 -22.82847595 164.91740417 C-22.83131607 163.46490502 -22.83402782 162.01240561 -22.83662415 160.55990601 C-22.84289139 159.02876126 -22.84953843 157.49761802 -22.85653687 155.96647644 C-22.87755213 150.93919936 -22.88793827 145.91192207 -22.89790344 140.88461304 C-22.90195223 139.15131744 -22.90606919 137.41802199 -22.91025352 135.68472672 C-22.92930122 127.53899551 -22.943532 119.39327333 -22.95186549 111.24752414 C-22.9616306 101.8584136 -22.98793285 92.46953927 -23.02836639 83.08051193 C-23.05857661 75.81494034 -23.07333909 68.54943626 -23.07664651 61.28380311 C-23.07899178 56.94850369 -23.08788361 52.61345673 -23.11310768 48.27822495 C-23.13647893 44.19547933 -23.14058557 40.11315077 -23.1303463 36.03035545 C-23.12985299 34.53808513 -23.13611268 33.04579365 -23.14990234 31.55358696 C-23.22811632 22.58245816 -23.27576271 13.36252122 -16.90950489 6.33572197 C-11.77186495 1.56066863 -7.0109437 0.0200453 0 0 Z M48.31694031 70.97836304 C47.64791687 71.80207397 47.64791687 71.80207397 46.96537781 72.64242554 C46.27315125 73.4584021 46.27315125 73.4584021 45.56694031 74.29086304 C41.36968058 81.05460005 42.00811183 88.48113129 42.02787781 96.14242554 C42.01176453 97.38379272 41.99565125 98.62515991 41.97904968 99.90414429 C41.97469276 108.08645016 42.6331261 114.01317285 47.09037781 121.01742554 C54.92466031 128.85170804 63.58120686 128.49985397 74.02787781 128.57992554 C75.26988953 128.60892944 76.51190125 128.63793335 77.79154968 128.66781616 C85.90228653 128.72369299 93.05302249 128.27741967 99.21220398 122.51669312 C105.74855095 115.47480614 105.71310557 108.2735318 105.71098328 99.08505249 C105.71534426 96.97118791 105.75166647 94.85943532 105.78959656 92.74594116 C105.86271446 84.12172604 105.40307647 77.9754298 99.59428406 71.24398804 C99.03612 70.79797241 98.47795593 70.35195679 97.90287781 69.89242554 C97.34729187 69.43094116 96.79170593 68.96945679 96.21928406 68.49398804 C89.96551931 64.41148881 83.34472997 64.89516012 76.15800476 64.89682007 C74.04414018 64.89245909 71.9323876 64.85613688 69.81889343 64.81820679 C61.18081296 64.74503518 55.10170429 65.24143905 48.31694031 70.97836304 Z " fill="#000000" transform="translate(64.65962219238281,276.7325744628906)"/>
<path d="M0 0 C1.53498202 -0.00407014 3.06996111 -0.0094145 4.60493469 -0.01593018 C8.75576585 -0.029557 12.90637224 -0.02432439 17.05720711 -0.01479292 C21.41098744 -0.00717222 25.76474915 -0.01424861 30.11853027 -0.01895142 C37.42850177 -0.02440196 44.73838219 -0.01723578 52.04833984 -0.00292969 C60.48718296 0.01339549 68.92580859 0.00810649 77.36464643 -0.0084089 C84.62349029 -0.02204377 91.88226886 -0.02393366 99.14112139 -0.0160929 C103.47063795 -0.01142737 107.80005246 -0.01076061 112.12956238 -0.02070236 C116.20084448 -0.02939894 120.27184749 -0.02330128 124.34309959 -0.00601959 C125.83296941 -0.00206907 127.32286291 -0.00316411 128.81272316 -0.00980759 C137.72116192 -0.04585455 144.83936444 0.22718966 152.55664062 5.13818359 C158.28423875 10.86578172 159.92417813 16.84955312 159.95381165 24.76223755 C159.9645446 26.73034142 159.9645446 26.73034142 159.97549438 28.73820496 C159.97833451 30.19070411 159.98104625 31.64320352 159.98364258 33.09570312 C159.98990983 34.62684787 159.99655686 36.15799111 160.0035553 37.68913269 C160.02457056 42.71640977 160.0349567 47.74368706 160.04492188 52.77099609 C160.04897066 54.50429169 160.05308762 56.23758714 160.05727196 57.97088242 C160.07631965 66.11661362 160.09055043 74.2623358 160.09888393 82.40808499 C160.10864904 91.79719553 160.13495128 101.18606986 160.17538482 110.5750972 C160.20559504 117.84066879 160.22035753 125.10617287 160.22366494 132.37180603 C160.22601021 136.70710544 160.23490205 141.0421524 160.26012611 145.37738419 C160.28349737 149.4601298 160.28760401 153.54245837 160.27736473 157.62525368 C160.27687142 159.117524 160.28313111 160.60981548 160.29692078 162.10202217 C160.37513475 171.07315097 160.42278114 180.29308791 154.05652332 187.31988716 C148.91888339 192.0949405 144.15796213 193.63556383 137.14701843 193.65560913 C136.4909389 193.66014024 135.83485938 193.66467136 135.15889865 193.66933978 C132.96808343 193.68196495 130.77751741 193.68036466 128.58666992 193.67871094 C127.01272259 193.68469741 125.43877819 193.69150323 123.86483765 193.69906616 C119.59405589 193.71672218 115.32335431 193.7214214 111.05253959 193.72269773 C108.38250443 193.72412022 105.71248959 193.72839168 103.04245949 193.73369217 C93.72238498 193.75219174 84.40236765 193.76036295 75.08227539 193.75878906 C66.40318546 193.75758796 57.72434433 193.7786843 49.04531735 193.81027639 C41.58696726 193.83645485 34.12869835 193.84715569 26.67030269 193.84587824 C22.21884558 193.84536903 17.76760958 193.85102937 13.31619835 193.87223434 C9.12754945 193.89164304 4.93933196 193.89172341 0.75066757 193.87720108 C-0.78274989 193.87511507 -2.31619453 193.87980152 -3.84956551 193.891922 C-12.91497805 193.95891254 -20.03922486 193.83586337 -27.21679688 187.64208984 C-27.6628125 187.08392578 -28.10882813 186.52576172 -28.56835938 185.95068359 C-29.02984375 185.39509766 -29.49132812 184.83951172 -29.96679688 184.26708984 C-32.86764289 179.82343719 -33.44574443 175.98904428 -33.46078491 170.7285614 C-33.46531603 170.07248187 -33.46984714 169.41640235 -33.47451556 168.74044162 C-33.48714073 166.5496264 -33.48554044 164.35906038 -33.48388672 162.16821289 C-33.48987319 160.59426556 -33.49667901 159.02032116 -33.50424194 157.44638062 C-33.52189796 153.17559886 -33.52659718 148.90489728 -33.52787352 144.63408256 C-33.529296 141.9640474 -33.53356746 139.29403256 -33.53886795 136.62400246 C-33.55736752 127.30392795 -33.56553873 117.98391062 -33.56396484 108.66381836 C-33.56276374 99.98472843 -33.58386008 91.3058873 -33.61545217 82.62686032 C-33.64163063 75.16851023 -33.65233147 67.71024132 -33.65105402 60.25184566 C-33.65054481 55.80038855 -33.65620515 51.34915255 -33.67741013 46.89774132 C-33.69681882 42.70909242 -33.69689919 38.52087493 -33.68237686 34.33221054 C-33.68029085 32.79879308 -33.6849773 31.26534844 -33.69709778 29.73197746 C-33.76880372 20.02845938 -33.56798403 12.86223154 -26.44335938 5.57568359 C-17.94364271 -0.14527955 -9.8853648 -0.04408008 0 0 Z M36.36914062 72.82568359 C31.02741488 79.38489669 31.43417551 86.51920254 31.43603516 94.57055664 C31.43167417 96.68442122 31.39535196 98.79617381 31.35742188 100.90966797 C31.28430397 109.53388309 31.74394197 115.68017933 37.55273438 122.41162109 C38.38998047 123.08064453 38.38998047 123.08064453 39.24414062 123.76318359 C39.79972656 124.22466797 40.3553125 124.68615234 40.92773438 125.16162109 C47.18149912 129.24412032 53.80228846 128.76044901 60.98901367 128.75878906 C63.10287826 128.76315004 65.21463084 128.79947225 67.328125 128.83740234 C75.96620547 128.91057395 82.04531414 128.41417008 88.83007812 122.67724609 C89.49910156 121.85353516 89.49910156 121.85353516 90.18164062 121.01318359 C90.643125 120.46919922 91.10460937 119.92521484 91.58007812 119.36474609 C95.77733785 112.60100908 95.13890661 105.17447784 95.11914062 97.51318359 C95.13525391 96.27181641 95.15136719 95.03044922 95.16796875 93.75146484 C95.17232568 85.56915897 94.51389234 79.64243628 90.05664062 72.63818359 C82.22235812 64.80390109 73.56581157 65.15575516 63.11914062 65.07568359 C61.87712891 65.04667969 60.63511719 65.01767578 59.35546875 64.98779297 C50.10466818 64.92406196 42.86170677 65.83096357 36.36914062 72.82568359 Z " fill="#000000" transform="translate(310.193359375,41.61181640625)"/>
<path d="M0 0 C1.31206924 -0.0071553 2.62413849 -0.01431061 3.97596741 -0.02168274 C5.42846656 -0.02452286 6.88096597 -0.02723461 8.33346558 -0.02983093 C9.86461033 -0.03609818 11.39575356 -0.04274521 12.92689514 -0.04974365 C17.95417222 -0.07075891 22.98144951 -0.08114505 28.00875854 -0.09111023 C29.74205415 -0.09515901 31.47534959 -0.09927597 33.20864487 -0.10346031 C41.35437607 -0.12250801 49.50009825 -0.13673879 57.64584744 -0.14507228 C67.03495798 -0.15483739 76.42383231 -0.18113964 85.81285965 -0.22157317 C93.07843124 -0.25178339 100.34393532 -0.26654588 107.60956848 -0.26985329 C111.94486789 -0.27219857 116.27991485 -0.2810904 120.61514664 -0.30631447 C124.69789225 -0.32968572 128.78022082 -0.33379236 132.86301613 -0.32355309 C134.35528645 -0.32305977 135.84757793 -0.32931947 137.33978462 -0.34310913 C146.31091342 -0.42132311 155.53085036 -0.4689695 162.55764961 5.89728832 C167.33270295 11.03492826 168.87332628 15.79584952 168.89337158 22.80679321 C168.89790269 23.46287274 168.90243381 24.11895227 168.90710223 24.79491299 C168.9197274 26.98572821 168.91812711 29.17629423 168.91647339 31.36714172 C168.92245986 32.94108906 168.92926568 34.51503345 168.93682861 36.088974 C168.95448463 40.35975575 168.95918385 44.63045734 168.96046019 48.90127206 C168.96188267 51.57130722 168.96615413 54.24132205 168.97145462 56.91135216 C168.98995419 66.23142667 168.9981254 75.55144399 168.99655151 84.87153625 C168.99535041 93.55062619 169.01644675 102.22946731 169.04803884 110.90849429 C169.0742173 118.36684438 169.08491814 125.82511329 169.08364069 133.28350896 C169.08313148 137.73496607 169.08879182 142.18620207 169.1099968 146.6376133 C169.12940549 150.82626219 169.12948586 155.01447968 169.11496353 159.20314407 C169.11287752 160.73656153 169.11756397 162.27000618 169.12968445 163.80337715 C169.19667499 172.8687897 169.07362583 179.99303651 162.87985229 187.17060852 C162.32168823 187.61662415 161.76352417 188.06263977 161.18844604 188.52217102 C160.63286011 188.9836554 160.07727417 189.44513977 159.50485229 189.92060852 C155.06119964 192.82145453 151.22680673 193.39955608 145.96632385 193.41459656 C145.31024432 193.41912767 144.6541648 193.42365878 143.97820407 193.4283272 C141.78738885 193.44095238 139.59682283 193.43935209 137.40597534 193.43769836 C135.83202801 193.44368484 134.25808361 193.45049066 132.68414307 193.45805359 C128.41336131 193.4757096 124.14265973 193.48040882 119.87184501 193.48168516 C117.20180985 193.48310764 114.53179501 193.4873791 111.86176491 193.4926796 C102.5416904 193.51117916 93.22167307 193.51935038 83.90158081 193.51777649 C75.22249088 193.51657539 66.54364975 193.53767173 57.86462277 193.56926382 C50.40627268 193.59544228 42.94800377 193.60614311 35.48960811 193.60486567 C31.038151 193.60435646 26.586915 193.61001679 22.13550377 193.63122177 C17.94685487 193.65063047 13.75863738 193.65071084 9.56997299 193.63618851 C8.03655553 193.6341025 6.50311089 193.63878895 4.96973991 193.65090942 C-4.73377817 193.72261536 -11.90000601 193.52179568 -19.18655396 186.39717102 C-24.9075171 177.89745436 -24.80631763 169.83917645 -24.76223755 159.95381165 C-24.76630769 158.41882963 -24.77165205 156.88385054 -24.77816772 155.34887695 C-24.79179454 151.1980458 -24.78656194 147.04743941 -24.77703047 142.89660454 C-24.76940977 138.54282421 -24.77648616 134.1890625 -24.78118896 129.83528137 C-24.78663951 122.52530988 -24.77947333 115.21542945 -24.76516724 107.9054718 C-24.74884206 99.46662869 -24.75413106 91.02800306 -24.77064645 82.58916521 C-24.78428132 75.33032136 -24.78617121 68.07154279 -24.77833045 60.81269026 C-24.77366492 56.48317369 -24.77299816 52.15375919 -24.78293991 47.82424927 C-24.79163648 43.75296716 -24.78553883 39.68196416 -24.76825714 35.61071205 C-24.76430662 34.12084223 -24.76540166 32.63094873 -24.77204514 31.14108849 C-24.80809209 22.23264973 -24.53504789 15.1144472 -19.62405396 7.39717102 C-13.89645583 1.6695729 -7.91268443 0.02963352 0 0 Z M45.62594604 72.14717102 C40.08666453 80.15667268 40.38591071 87.38044747 40.31344604 96.83467102 C40.28444214 98.07668274 40.25543823 99.31869446 40.22555542 100.5983429 C40.16967859 108.70907975 40.61595192 115.8598157 46.37667847 122.01899719 C53.41856545 128.55534416 60.61983978 128.51989878 69.80831909 128.51777649 C71.92218368 128.52213747 74.03393626 128.55845968 76.14743042 128.59638977 C84.77164554 128.66950767 90.91794178 128.20986968 97.64938354 122.40107727 C98.09539917 121.84291321 98.54141479 121.28474915 99.00094604 120.70967102 C99.46243042 120.15408508 99.92391479 119.59849915 100.39938354 119.02607727 C104.48188278 112.77231253 103.99821146 106.15152318 103.99655151 98.96479797 C104.0009125 96.85093339 104.03723471 94.73918081 104.07516479 92.62568665 C104.1483364 83.98760617 103.65193253 77.9084975 97.91500854 71.12373352 C97.36586792 70.6777179 96.81672729 70.23170227 96.25094604 69.77217102 C95.43496948 69.07994446 95.43496948 69.07994446 94.60250854 68.37373352 C87.83877153 64.17647379 80.41224029 64.81490504 72.75094604 64.83467102 C71.50957886 64.81855774 70.26821167 64.80244446 68.98922729 64.7858429 C59.95489913 64.78103228 52.33308667 65.44003039 45.62594604 72.14717102 Z " fill="#000000" transform="translate(66.37405395507813,41.85282897949219)"/>
<path d="M0 0 C2.25866771 -0.00436177 4.51536056 -0.04068314 6.77368164 -0.07861328 C16.08810909 -0.15188159 22.77212567 0.27272991 29.77563477 7.12060547 C35.15730565 15.11623078 35.36059415 21.97088539 35.15063477 31.37060547 C35.13033203 33.10503906 35.13033203 33.10503906 35.10961914 34.87451172 C35.07450521 37.7070355 35.02532477 40.53856854 34.96313477 43.37060547 C35.76944336 43.34442139 36.57575195 43.3182373 37.40649414 43.29125977 C41.09183949 43.18674286 44.77687214 43.12210308 48.46313477 43.05810547 C49.73157227 43.01621094 51.00000977 42.97431641 52.30688477 42.93115234 C59.93069709 42.83188395 65.28581277 43.04517228 70.96313477 48.37060547 C77.16375951 55.26624581 77.84234707 61.40146686 77.72485352 70.43701172 C77.7282222 71.67047836 77.73159088 72.90394501 77.73506165 74.17478943 C77.73476387 76.77094715 77.71961627 79.36714109 77.69042969 81.96313477 C77.65071677 85.92492425 77.66975858 89.88336916 77.69555664 93.84521484 C77.68799785 96.37582672 77.67704473 98.9064312 77.66235352 101.43701172 C77.67282967 103.20293419 77.67282967 103.20293419 77.68351746 105.00453186 C77.54693061 112.99991533 76.05986322 118.06636433 70.52079773 123.88600159 C63.67851827 130.10792518 55.92934785 129.7433202 47.1875 129.74121094 C45.16588294 129.74557257 43.14647437 129.78191538 41.12524414 129.81982422 C32.82300695 129.84457008 25.36618475 129.56480832 19.09472656 123.59082031 C15.10489981 119.21672364 12.70496827 115.45490593 12.73608398 109.41845703 C12.73623505 108.43774231 12.73638611 107.45702759 12.73654175 106.44659424 C12.74686432 105.39542419 12.75718689 104.34425415 12.76782227 103.26123047 C12.77065216 102.17928406 12.77348206 101.09733765 12.77639771 99.98260498 C12.78758867 96.52849243 12.81269157 93.07463959 12.83813477 89.62060547 C12.84816595 87.2781613 12.85729156 84.93571306 12.86547852 82.59326172 C12.88752447 76.85228776 12.92099142 71.11146517 12.96313477 65.37060547 C11.12312826 65.40934245 9.28312174 65.44807943 7.44311523 65.48681641 C5.81330719 65.52011047 5.81330719 65.52011047 4.15057373 65.55407715 C1.90311793 65.6029008 -0.34408886 65.66356267 -2.59106445 65.73095703 C-10.39886091 65.80973382 -17.94982226 65.05768374 -23.9777832 59.61962891 C-30.66617475 52.38451948 -30.40950232 44.72693308 -30.4074707 35.33374023 C-30.41183247 33.07507253 -30.44815385 30.81837968 -30.48608398 28.56005859 C-30.55542855 19.82953539 -30.25585911 13.25973036 -24.29077148 6.34716797 C-23.73260742 5.90115234 -23.17444336 5.45513672 -22.59936523 4.99560547 C-22.0437793 4.53412109 -21.48819336 4.07263672 -20.91577148 3.59716797 C-14.44420776 -0.62751189 -7.43482334 -0.00160805 0 0 Z " fill="#000000" transform="translate(307.036865234375,276.62939453125)"/>
<path d="M0 0 C2.25866771 -0.00436177 4.51536056 -0.04068314 6.77368164 -0.07861328 C16.08810909 -0.15188159 22.77212567 0.27272991 29.77563477 7.12060547 C35.41005401 15.49174264 35.42747934 23.01292071 35.33813477 32.87060547 C35.34973633 34.15064453 35.36133789 35.43068359 35.37329102 36.74951172 C35.34779042 44.96920297 35.13056787 51.60392827 29.65063477 58.12060547 C20.64834634 65.65740508 14.26549737 65.59841652 2.83813477 65.68310547 C0.91614258 65.72661133 0.91614258 65.72661133 -1.04467773 65.77099609 C-9.38296378 65.82652771 -17.50173006 65.47581303 -23.97094727 59.61987305 C-30.6750031 52.39843218 -30.40950126 44.72202282 -30.4074707 35.33374023 C-30.41183247 33.07507253 -30.44815385 30.81837968 -30.48608398 28.56005859 C-30.55542855 19.82953539 -30.25585911 13.25973036 -24.29077148 6.34716797 C-23.73260742 5.90115234 -23.17444336 5.45513672 -22.59936523 4.99560547 C-22.0437793 4.53412109 -21.48819336 4.07263672 -20.91577148 3.59716797 C-14.44420776 -0.62751189 -7.43482334 -0.00160805 0 0 Z " fill="#000000" transform="translate(307.036865234375,404.62939453125)"/>
<path d="M0 0 C2.13847305 0.01384833 4.27254066 -0.0202482 6.41064453 -0.05834961 C14.52333961 -0.1045721 21.53797364 0.56578596 28.27392578 5.57641602 C35.20172288 12.91095686 34.55398065 20.91128413 34.62402344 30.31689453 C34.64053539 31.93943676 34.66776267 33.56190768 34.70605469 35.18408203 C35.08767182 51.45590482 35.08767182 51.45590482 30.64135742 57.171875 C30.19010498 57.63537354 29.73885254 58.09887207 29.27392578 58.57641602 C28.79753662 59.07020752 28.32114746 59.56399902 27.83032227 60.07275391 C21.03836952 66.34079724 13.21620927 65.94912498 4.49829102 65.94702148 C2.47667396 65.95138312 0.45726538 65.98772593 -1.56396484 66.02563477 C-9.86620204 66.05038063 -17.32302423 65.77061886 -23.59448242 59.79663086 C-28.55178908 54.36187394 -30.03611381 50.11656671 -30.02685547 42.74047852 C-30.03114059 41.98350677 -30.03542572 41.22653503 -30.0398407 40.44662476 C-30.04557318 38.84797158 -30.04609223 37.24929232 -30.04174805 35.65063477 C-30.03859387 33.21658311 -30.06203895 30.78375452 -30.08740234 28.34985352 C-30.08967618 26.79256337 -30.09037844 25.23526998 -30.08935547 23.67797852 C-30.10317009 22.594879 -30.10317009 22.594879 -30.11726379 21.48989868 C-30.06233461 15.4283274 -28.37933386 11.56032759 -24.53857422 6.95141602 C-16.79531143 0.41266077 -9.81247961 -0.08859267 0 0 Z " fill="#000000" transform="translate(413.72607421875,404.423583984375)"/>
<path d="M0 0 C2.13847305 0.01384833 4.27254066 -0.0202482 6.41064453 -0.05834961 C14.52333961 -0.1045721 21.53797364 0.56578596 28.27392578 5.57641602 C35.20172288 12.91095686 34.55398065 20.91128413 34.62402344 30.31689453 C34.64053539 31.93943676 34.66776267 33.56190768 34.70605469 35.18408203 C35.08767182 51.45590482 35.08767182 51.45590482 30.64135742 57.171875 C30.19010498 57.63537354 29.73885254 58.09887207 29.27392578 58.57641602 C28.79753662 59.07020752 28.32114746 59.56399902 27.83032227 60.07275391 C21.03836952 66.34079724 13.21620927 65.94912498 4.49829102 65.94702148 C2.47667396 65.95138312 0.45726538 65.98772593 -1.56396484 66.02563477 C-9.86620204 66.05038063 -17.32302423 65.77061886 -23.59448242 59.79663086 C-28.55178908 54.36187394 -30.03611381 50.11656671 -30.02685547 42.74047852 C-30.03114059 41.98350677 -30.03542572 41.22653503 -30.0398407 40.44662476 C-30.04557318 38.84797158 -30.04609223 37.24929232 -30.04174805 35.65063477 C-30.03859387 33.21658311 -30.06203895 30.78375452 -30.08740234 28.34985352 C-30.08967618 26.79256337 -30.09037844 25.23526998 -30.08935547 23.67797852 C-30.10317009 22.594879 -30.10317009 22.594879 -30.11726379 21.48989868 C-30.06233461 15.4283274 -28.37933386 11.56032759 -24.53857422 6.95141602 C-16.79531143 0.41266077 -9.81247961 -0.08859267 0 0 Z " fill="#000000" transform="translate(413.72607421875,276.423583984375)"/>
</svg>
